<?xml version="1.0" standalone="no"?>
<!DOCTYPE svg PUBLIC "-//W3C//DTD SVG 20010904//EN"
 "http://www.w3.org/TR/2001/REC-SVG-20010904/DTD/svg10.dtd">
<svg version="1.0" xmlns="http://www.w3.org/2000/svg"
 width="203.000000pt" height="65.000000pt" viewBox="0 0 203.000000 65.000000"
 preserveAspectRatio="xMidYMid meet">

<g transform="translate(0.000000,65.000000) scale(0.100000,-0.100000)"
fill="#000000" stroke="none">
<path d="M368 460 c-9 -6 -40 -54 -68 -107 l-53 -97 -20 39 -19 39 31 57 c17
31 31 59 31 63 0 3 -15 6 -33 6 -30 0 -36 -5 -68 -65 l-34 -65 29 -52 c41 -75
44 -78 87 -78 38 0 38 0 98 107 l60 107 17 -37 c15 -32 22 -37 51 -37 18 0 33
2 33 4 0 11 -55 103 -68 114 -19 14 -50 15 -74 2z"/>
<path d="M632 408 c-17 -17 -15 -43 5 -59 15 -13 15 -12 3 7 -20 32 -6 57 30
52 16 -2 27 -1 24 4 -8 12 -48 10 -62 -4z"/>
<path d="M850 416 c0 -2 9 -6 20 -9 11 -3 18 -1 14 4 -5 9 -34 13 -34 5z"/>
<path d="M972 328 c1 -51 3 -72 5 -46 l4 47 42 4 42 4 -42 1 c-42 2 -43 3 -43
36 0 34 1 35 48 39 l47 3 -52 2 -53 2 2 -92z"/>
<path d="M1127 413 l32 -4 4 -87 3 -87 2 87 2 87 33 4 c17 2 1 4 -38 4 -38 0
-56 -2 -38 -4z"/>
<path d="M1279 393 l-24 -28 25 21 c14 12 32 24 40 27 13 5 13 6 -1 6 -8 1
-26 -11 -40 -26z"/>
<path d="M1432 349 c-2 -63 1 -79 16 -90 15 -12 16 -12 5 1 -7 9 -14 49 -16
90 l-3 75 -2 -76z"/>
<path d="M1532 349 c-1 -41 -6 -80 -12 -87 -5 -7 -3 -6 6 1 11 11 14 30 11 88
l-3 74 -2 -76z"/>
<path d="M1607 413 c-3 -5 10 -8 28 -8 18 0 31 3 28 8 -2 4 -15 7 -28 7 -13 0
-26 -3 -28 -7z"/>
<path d="M1737 413 l32 -4 4 -82 3 -82 2 82 2 82 33 4 c17 2 1 4 -38 4 -38 0
-56 -2 -38 -4z"/>
<path d="M775 390 c-10 -11 -16 -22 -14 -24 2 -2 12 7 22 20 22 29 17 32 -8 4z"/>
<path d="M1591 379 c-1 -9 7 -23 17 -30 15 -12 16 -12 6 1 -6 8 -14 22 -17 30
-5 13 -6 12 -6 -1z"/>
<path d="M922 330 c0 -19 2 -27 5 -17 2 9 2 25 0 35 -3 9 -5 1 -5 -18z"/>
<path d="M1252 335 c0 -16 2 -22 5 -12 2 9 2 23 0 30 -3 6 -5 -1 -5 -18z"/>
<path d="M751 334 c0 -11 3 -14 6 -6 3 7 2 16 -1 19 -3 4 -6 -2 -5 -13z"/>
<path d="M675 328 c11 -6 23 -16 27 -22 5 -8 8 -7 8 1 0 7 -9 17 -19 23 -27
14 -41 12 -16 -2z"/>
<path d="M415 269 c-19 -33 -35 -62 -35 -65 0 -2 15 -4 33 -4 29 0 35 6 65 59
17 32 32 61 32 65 0 3 -13 6 -30 6 -25 0 -34 -8 -65 -61z"/>
<path d="M766 287 c4 -10 16 -22 28 -29 18 -9 19 -8 6 3 -8 8 -20 21 -27 29
-11 13 -12 13 -7 -3z"/>
<path d="M1260 293 c0 -6 8 -17 18 -24 16 -13 16 -13 2 6 -8 11 -16 22 -17 24
-2 2 -3 0 -3 -6z"/>
<path d="M891 270 c-13 -11 -19 -20 -14 -20 6 0 18 9 28 20 23 25 17 25 -14 0z"/>
<path d="M675 255 c-16 -8 -23 -14 -14 -15 8 0 24 7 35 15 23 18 18 18 -21 0z"/>
<path d="M828 243 c6 -2 18 -2 25 0 6 3 1 5 -13 5 -14 0 -19 -2 -12 -5z"/>
<path d="M1328 243 c6 -2 18 -2 25 0 6 3 1 5 -13 5 -14 0 -19 -2 -12 -5z"/>
<path d="M1478 243 c7 -3 16 -2 19 1 4 3 -2 6 -13 5 -11 0 -14 -3 -6 -6z"/>
<path d="M1628 243 c7 -3 16 -2 19 1 4 3 -2 6 -13 5 -11 0 -14 -3 -6 -6z"/>
</g>
</svg>
